<svg version="1.2" xmlns="http://www.w3.org/2000/svg" viewBox="0 0 1526 376" width="1526" height="376">
	<title>ironsource-svg</title>
	<style>
		.s0 { fill: #0d148c } 
	</style>
	<path id="Layer" fill-rule="evenodd" class="s0" d="m1444.6 253.8q-2.6-1-5.1-2.2-2.4-1.2-4.7-2.7-2.4-1.5-4.6-3.1-2.1-1.7-4.1-3.6-2-1.9-3.7-4-1.7-2-3.3-4.3-1.5-2.2-2.7-4.6-1.3-2.4-2.3-4.9-1.1-2.7-1.9-5.4-0.8-2.8-1.3-5.7-0.5-2.8-0.8-5.7-0.2-2.8-0.2-5.7 0-12 4.3-22.3 1-2.5 2.2-4.9 1.3-2.4 2.8-4.6 1.5-2.3 3.2-4.3 1.7-2.1 3.6-4 7.6-7.6 18.1-11.8 2.8-1.1 5.6-1.9 2.9-0.8 5.8-1.4 2.9-0.5 5.9-0.7 2.9-0.3 5.9-0.3 12.6 0.1 22.4 3.9 2.4 0.9 4.6 2 2.3 1.2 4.5 2.5 2.1 1.3 4.1 2.8 2.1 1.5 3.9 3.2 2.5 2.3 4.7 4.9 2.2 2.6 4.1 5.4 1.8 2.8 3.2 5.9 1.5 3 2.6 6.2 4.6 13.5 4.1 29.3l-76.6-0.1q1.6 9.3 6.8 14.5 5.1 5.2 14.2 5.2 10.5 0 15-7.8h38.5q-0.5 1.9-1.2 3.8-0.7 1.8-1.5 3.6-0.9 1.7-2 3.4-1.1 1.6-2.4 3.1-5.4 6.6-13.4 11.6-1.8 1.2-3.7 2.2-1.9 1-3.8 1.9-2 0.8-4 1.5-2.1 0.7-4.2 1.2-2.3 0.6-4.6 1-2.3 0.4-4.6 0.6-2.4 0.3-4.7 0.4-2.4 0.1-4.7 0.1-13.3 0-24-4.2zm10.6-76.6q-4.6 5-6.3 13.8h37.1q-1.3-8.9-6-13.9-1.2-1.2-2.5-2.2-1.4-0.9-2.9-1.6-1.6-0.6-3.2-0.9-1.6-0.3-3.3-0.3-8.2 0-12.9 5.1zm-128.2 76.8q-2.6-1-5.1-2.3-2.5-1.2-4.8-2.7-2.4-1.5-4.5-3.2-2.2-1.7-4.2-3.6-2-1.9-3.7-3.9-1.8-2.1-3.3-4.3-1.5-2.3-2.7-4.7-1.3-2.3-2.3-4.9-1.1-2.6-1.9-5.3-0.8-2.8-1.3-5.6-0.5-2.8-0.8-5.7-0.2-2.8-0.2-5.7 0-12 4.2-22.2 1.1-2.6 2.3-5 1.3-2.3 2.8-4.6 1.6-2.2 3.3-4.3 1.7-2.1 3.7-4 2-1.9 4.2-3.6 2.2-1.7 4.5-3.2 2.4-1.5 4.9-2.7 2.4-1.3 5-2.3 10.9-4.2 24.2-4.2 2.6 0 5.2 0.2 2.6 0.1 5.2 0.5 2.7 0.4 5.2 1 2.6 0.6 5.1 1.4 9.4 3.2 16.2 8.8 6.8 5.6 11 13.4 4.2 7.8 5.3 17.1l-38.3-0.1q-1.7-7.2-5.3-11.1-3.6-3.8-10.1-3.8c-6.2 0-10.8 2.5-13.7 7.6q-4.4 7.7-4.5 21.2 0 13.3 4.6 20.9 4.7 7.5 13.9 7.6 7.4 0 11.1-4.7 3.7-4.7 4.5-13.8l38.4 0.1q0 9.7-4 18.1-0.9 2.1-2.1 4.1-1.2 1.9-2.6 3.8-1.4 1.8-2.9 3.5-1.6 1.7-3.3 3.2-1.9 1.6-3.9 3.1-2 1.4-4.2 2.6-2.1 1.2-4.4 2.2-2.2 1.1-4.6 1.8-2.6 0.9-5.4 1.6-2.7 0.7-5.4 1.1-2.8 0.5-5.6 0.7-2.8 0.2-5.6 0.1-13.3 0-24.1-4.2zm-77.9-89q6.5-10 14.4-14.1 7.9-4.2 18.3-4.2 4.4 0 6.5 1.1l-0.1 33.4h-0.8q-17.7-3-27.4 4.6-9.7 7.6-9.7 25.6l-0.1 43.4-39.8-0.1 0.2-105.8 37.9 0.1v16zm-90.9 76h-0.6q-1.4 1.9-3 3.7-1.6 1.8-3.4 3.4-1.8 1.6-3.8 3-2 1.4-4.1 2.5-8.1 4.3-19.2 4.3-9.7 0-16.9-3-1.7-0.7-3.3-1.6-1.6-0.9-3.1-1.9-1.5-1.1-2.9-2.3-1.3-1.2-2.6-2.6-1.2-1.4-2.2-2.9-1.1-1.6-2-3.2-0.9-1.6-1.6-3.3-0.7-1.7-1.3-3.5-0.6-2-1.1-4.1-0.4-2-0.7-4.1-0.3-2.1-0.5-4.2-0.1-2.1-0.1-4.2l0.1-68.2h39.8l-0.1 58.9q0 16.8 14.3 16.9 7.8 0 12.1-5 4.4-5 4.4-13.7v-57.1l39.8 0.1-0.1 105.8h-37.9zm-164.4 12.5q-2.6-1-5-2.2-2.5-1.3-4.8-2.7-2.4-1.5-4.5-3.2-2.2-1.7-4.2-3.6-1.9-1.9-3.6-4-1.8-2.1-3.3-4.3-1.5-2.2-2.7-4.6-1.3-2.4-2.3-4.9-1-2.7-1.8-5.4-0.8-2.7-1.4-5.6-0.5-2.8-0.7-5.6-0.3-2.9-0.2-5.7 0-12 4.2-22.3 1-2.5 2.3-4.9 1.2-2.4 2.7-4.6 1.5-2.3 3.3-4.4 1.7-2 3.6-3.9 7.7-7.6 18.6-11.8 10.8-4.3 24.3-4.3 13.5 0 24.3 4.3 10.9 4.3 18.4 11.9 7.6 7.6 11.7 17.8 4.1 10.3 4.1 22.4 0 2.8-0.3 5.7-0.2 2.8-0.7 5.6-0.6 2.8-1.4 5.6-0.7 2.7-1.8 5.4-1 2.4-2.2 4.8-1.2 2.4-2.7 4.6-1.5 2.3-3.2 4.3-1.7 2.1-3.6 4-2 1.9-4.1 3.6-2.2 1.7-4.5 3.2-2.3 1.4-4.8 2.7-2.5 1.2-5 2.2-10.9 4.2-24.4 4.2-13.5 0-24.3-4.3zm37.9-30q4.6-8.2 4.6-21.7 0-13.5-4.6-21.7-4.6-8.2-13.9-8.2-9.2 0-13.7 8.2-4.4 8.1-4.4 21.6 0 13.5 4.4 21.7 4.4 8.2 13.6 8.3 9.3 0 14-8.2zm-171.4 31.2q-2.9-0.7-5.7-1.7-2.9-0.9-5.6-2.1-2.8-1.2-5.4-2.6-2.7-1.4-5.2-3.1-2.3-1.5-4.3-3.3-2.1-1.8-4-3.8-1.8-2-3.4-4.2-1.7-2.2-3-4.6-5.4-9.6-5.5-22.4l45 0.1q1.1 8.9 7.7 13.1 6.6 4.3 17.6 4.3 3.1 0 6.6-0.6 0.8-0.1 1.6-0.3 0.8-0.2 1.6-0.5 0.8-0.2 1.5-0.6 0.8-0.3 1.5-0.7 2.8-1.4 4.5-3.8 0.5-0.6 0.8-1.3 0.4-0.7 0.6-1.4 0.2-0.7 0.3-1.5 0.2-0.7 0.1-1.5 0.1-0.8 0-1.5-0.2-0.8-0.4-1.5-0.2-0.7-0.6-1.4-0.4-0.6-0.8-1.2-0.6-0.6-1.2-1.2-0.7-0.6-1.4-1.1-0.6-0.5-1.4-0.9-0.7-0.4-1.5-0.8-1.1-0.4-2.2-0.9-1.1-0.4-2.2-0.8-1.1-0.4-2.3-0.7-1.1-0.4-2.3-0.7-5.3-1.4-12.3-3.1-9.5-2.3-19.3-5.4-2.4-0.8-4.7-1.6-2.3-0.9-4.6-2-2.3-1-4.4-2.2-2.2-1.1-4.3-2.4-2-1.3-3.9-2.7-1.8-1.5-3.5-3.1-1.6-1.7-3.1-3.5-1.5-1.8-2.8-3.7-5.1-7.9-5.1-19.8 0-12.6 5-21.5 4.9-8.9 13.4-14.5 2.2-1.5 4.6-2.7 2.4-1.3 4.9-2.3 2.5-1 5.1-1.8 2.5-0.8 5.2-1.4 2.9-0.6 5.9-1.1 3-0.5 6-0.8 3-0.4 6-0.5 3-0.2 6.1-0.1 11.6 0 22.4 2.5 2.6 0.5 5.1 1.3 2.5 0.8 4.9 1.8 2.4 1 4.7 2.2 2.3 1.3 4.6 2.7 8.4 5.5 13.4 14.1 5.1 8.6 5.2 20.7l-43.5-0.1q-0.3-1.4-0.7-2.8-0.5-1.3-1.2-2.6-0.7-1.2-1.7-2.3-0.9-1.1-2-2-4.5-3.6-13.6-3.6-7.4 0-11.9 2.9-4.5 2.9-4.5 7.4 0 3.4 2.3 5.4 2.3 2.1 6.8 3.7 4.5 1.5 11.2 2.9 6.6 1.4 15 3.4 9.5 2.3 18.6 5.6 9 3.2 16.2 8.6 7.1 5.4 11.4 13.4 4.3 8 4.3 19.8 0 12.3-5.2 21.5-5.2 9.2-14 15.4-8.9 6.2-20.7 9.4-3 0.8-6.1 1.5-3.1 0.6-6.3 1-3.1 0.4-6.3 0.6-3.2 0.1-6.3 0.1-3.5 0-6.9-0.1-3.4-0.2-6.9-0.6-3.4-0.4-6.8-1-3.3-0.6-6.7-1.4zm-121.9-91.9q6.5-8.7 14.9-13.3 8.3-4.5 19.7-4.5 18.7 0 28.2 11.2 9.4 11.3 9.4 29.5l-0.1 68.5-39.8-0.1 0.1-58.9q0-8.3-3.6-13.3-3.5-5-11.3-5-7.6 0-11.9 5.7-4.4 5.7-4.4 14.4l-0.1 57.1-39.8-0.1 0.2-105.8 37.9 0.1v14.5zm-131.4 90.2q-2.6-1-5.1-2.3-2.5-1.2-4.8-2.7-2.3-1.5-4.5-3.2-2.2-1.7-4.1-3.6-2-1.9-3.7-3.9-1.7-2.1-3.2-4.3-1.5-2.3-2.8-4.7-1.2-2.3-2.2-4.8-1.1-2.7-1.9-5.4-0.8-2.8-1.3-5.6-0.5-2.8-0.8-5.6-0.2-2.9-0.2-5.7 0-12.1 4.2-22.3 1.1-2.5 2.3-4.9 1.3-2.4 2.8-4.7 1.5-2.2 3.2-4.3 1.7-2.1 3.7-4 7.7-7.5 18.5-11.8 10.8-4.2 24.3-4.2 13.5 0 24.3 4.3 2.6 1 5.1 2.2 2.4 1.3 4.8 2.8 2.3 1.5 4.4 3.2 2.2 1.7 4.2 3.6 1.9 2 3.5 4 1.7 2.1 3.2 4.4 1.5 2.2 2.7 4.6 1.2 2.4 2.2 4.9 1.1 2.7 1.8 5.4 0.8 2.8 1.3 5.6 0.5 2.8 0.8 5.6 0.2 2.9 0.2 5.7 0 2.9-0.2 5.7-0.3 2.9-0.8 5.7-0.5 2.8-1.3 5.5-0.8 2.8-1.8 5.4-1 2.5-2.3 4.9-1.2 2.4-2.7 4.6-1.4 2.2-3.1 4.3-1.7 2.1-3.6 3.9-7.6 7.5-18.5 11.7-10.8 4.3-24.3 4.3-13.5-0.1-24.3-4.3zm37.8-30.1q4.7-8.1 4.7-21.6 0-13.5-4.6-21.7-4.7-8.2-13.9-8.2-9.3 0-13.7 8.1-4.5 8.2-4.5 21.7 0 13.5 4.4 21.7 4.4 8.2 13.7 8.2 9.3 0 13.9-8.2zm-115.5-58.9q6.5-10 14.4-14.1 7.9-4.2 18.2-4.2 4.5 0.1 6.6 1.1l-0.1 33.4h-0.8q-17.7-2.9-27.4 4.6-9.7 7.6-9.7 25.6l-0.1 43.4-39.8-0.1 0.2-105.8 37.9 0.1-0.1 16zm-52.8-16.1l-0.1 105.8h-39.8l0.1-105.8zm0.1-42.6l-0.1 29.7-39.8-0.1 0.1-29.6zm-288.3 269.8c-104.1 0-188.3-83.9-188.3-187.6 0-103.8 84.2-187.6 188.3-187.6 104.1 0 188.3 83.8 188.3 187.6 0 103.7-84.2 187.6-188.3 187.6zm-38.6-270.4l-48-0.1-0.1 37.9h48zm0 47.9l-48.3-0.1v38.1c0 5.7-8 7.8-14.6 9.9v25.8c6.5 2.2 14.5 3.1 14.5 10.3l-0.1 36 48.4 0.4v-27.6c0-18.7-4.8-27.5-17.1-32.5 11.8-3.2 17.2-12.2 17.2-28.1 0 0 0-32.2 0-32.2zm137.5 75.7c0.1-53.9-74.4-48.6-74.4-69.9 0-6.5 4.2-10.6 11.6-10.6 9.2 0 13.2 7.9 13.2 15.7v5.4l48.8 0.1v-9.5c0-29.1-20.5-52.3-62-52.3-46.1-0.1-64.6 25.3-64.6 54.4-0.1 54 74.4 50.9 74.4 70.1 0 6.8-4.3 10.9-13 10.8-9.5 0-14.4-6.5-14.4-16v-3.9l-48.8-0.1v8.9c0 29.1 20.8 52.3 64.3 52.3 45.5 0.1 64.9-26.2 64.9-55.4z"/>
</svg>