<svg width="24" height="25" viewBox="0 0 24 25" fill="none" xmlns="http://www.w3.org/2000/svg">
<path fill-rule="evenodd" clip-rule="evenodd" d="M23.3156 10.0013L20.1804 9.61463C19.9556 9.59287 19.758 9.45652 19.6579 9.25408C19.5638 8.99804 19.4593 8.73155 19.3443 8.51208C19.288 8.31817 19.331 8.10892 19.4593 7.95297L21.424 5.41868C21.6226 5.16786 21.0844 4.11235 20.4835 3.50621C19.8826 2.90007 18.8427 2.38276 18.5919 2.58132L16.0837 4.5356C15.8463 4.72065 15.5184 4.73735 15.2633 4.5774L14.861 4.41541C14.6294 4.33701 14.4617 4.13493 14.4273 3.89288L14.0354 0.705421C13.9675 0.365774 12.844 0 11.9923 0C11.1406 0 10.038 0.365774 10.0014 0.68452L9.61475 3.81973C9.57791 4.1201 9.35616 4.36486 9.06087 4.43109L8.69509 4.58263C8.46215 4.70849 8.17669 4.68384 7.96877 4.51992L5.4188 2.58132C5.16799 2.38276 4.11247 2.92097 3.50633 3.52188C2.90019 4.1228 2.3881 5.16264 2.58144 5.41346L4.53572 7.91639C4.69368 8.11059 4.72997 8.37674 4.62978 8.60614C4.52875 8.82212 4.43644 9.04333 4.35283 9.26976C4.25624 9.45314 4.07331 9.5751 3.86688 9.59373L0.679417 9.98563C0.365896 10.0327 0.00012207 11.1613 0.00012207 12.0183C0.00012207 12.8752 0.365896 13.9726 0.684642 14.0091L3.81985 14.3958C4.01915 14.4147 4.19853 14.5246 4.3058 14.6937C4.4199 14.9976 4.55253 15.2943 4.70293 15.582C4.72323 15.7507 4.6742 15.9204 4.56707 16.0523L2.58144 18.5865C2.38288 18.8374 2.92109 19.8981 3.522 20.499C4.12292 21.0999 5.16276 21.6172 5.41358 21.4239L7.92174 19.4696C8.05578 19.3582 8.22907 19.3054 8.40247 19.3233C8.72553 19.4831 9.05896 19.621 9.40051 19.7361C9.51178 19.8407 9.58217 19.9815 9.59908 20.1332L9.99098 23.3207C10.0328 23.6395 11.1562 24.0052 12.008 24.0052C12.8597 24.0052 13.9622 23.6395 13.9988 23.3207L14.3907 20.1855C14.4069 20.0135 14.4917 19.8553 14.6259 19.7466C14.9712 19.6285 15.3082 19.4871 15.6343 19.3233C15.7878 19.3183 15.9379 19.3683 16.0576 19.4644L18.5814 21.4239C18.8375 21.6225 19.893 21.0843 20.4939 20.4833C21.0948 19.8824 21.6174 18.8426 21.4188 18.5918L19.4645 16.0836C19.3435 15.9384 19.292 15.7475 19.3234 15.5611C19.4683 15.2593 19.594 14.9486 19.6997 14.631C19.8034 14.4954 19.9584 14.4085 20.1281 14.3906L23.3156 13.9987C23.6343 13.9569 24.0001 12.8334 24.0001 11.9817C24.0001 11.13 23.6343 10.0379 23.3156 10.0013ZM12.0184 16.4494C9.57987 16.458 7.59603 14.4882 7.58738 12.0496C7.57872 9.6111 9.54853 7.62726 11.9871 7.61859C14.4256 7.60993 16.4095 9.57973 16.4181 12.0183C16.4223 13.1893 15.9611 14.3141 15.136 15.145C14.3109 15.976 13.1895 16.4452 12.0184 16.4494Z" fill="#979AA2"/>
</svg>
