<?xml version="1.0" standalone="no"?>
<!DOCTYPE svg PUBLIC "-//W3C//DTD SVG 20010904//EN"
 "http://www.w3.org/TR/2001/REC-SVG-20010904/DTD/svg10.dtd">
<svg version="1.0" xmlns="http://www.w3.org/2000/svg"
 width="126.000000pt" height="126.000000pt" viewBox="0 0 126.000000 126.000000"
 preserveAspectRatio="xMidYMid meet">
<metadata>
Created by potrace 1.11, written by Peter Selinger 2001-2013
</metadata>
<g transform="translate(0.000000,126.000000) scale(0.100000,-0.100000)"
fill="#000000" stroke="none">
<path d="M484 1246 c-73 -18 -190 -76 -250 -124 -101 -80 -187 -219 -218 -349
-18 -80 -14 -239 9 -313 51 -167 177 -317 326 -388 132 -63 249 -80 382 -57
233 41 415 199 492 430 34 99 38 242 11 344 -55 207 -216 378 -416 443 -79 25
-258 33 -336 14z m261 -127 c158 -36 300 -165 356 -325 27 -76 32 -204 12
-282 -98 -377 -565 -504 -838 -228 -103 103 -146 217 -141 366 4 112 22 169
82 260 82 124 210 204 354 219 74 8 104 6 175 -10z"/>
<path d="M673 946 c-29 -33 -63 -72 -75 -86 -13 -14 -52 -59 -88 -100 -35 -41
-75 -86 -88 -100 -45 -47 -83 -98 -75 -103 5 -2 59 -4 121 -3 86 1 112 -2 112
-12 0 -7 -13 -67 -30 -132 -40 -159 -39 -165 13 -110 82 86 347 393 347 401 0
5 -47 9 -104 9 -57 0 -111 3 -119 6 -12 4 -9 27 20 141 19 75 30 139 26 143
-4 4 -32 -20 -60 -54z"/>
</g>
</svg>
