<svg xmlns="http://www.w3.org/2000/svg" viewBox="0 0 96.2 96.98"><defs><style>.cls-1{fill:#ff3b11;}</style></defs><g id="Layer_2" data-name="Layer 2"><g id="Layer_1-2" data-name="Layer 1"><path class="cls-1" d="M96.2,97,94.94,20.79H73.76L32.81,97H52.4l4.09-8.34H77.25L76.88,97ZM65.77,69.75,79.46,40,78.11,69.75Z"/><path class="cls-1" d="M48,35.56,42,31.27c-.82-.61-1.6-1.18-2.31-1.69-3.55-2.56-4.77-3.52-4.67-5,.2-2.83,2.19-4.29,5.45-4.46,5.38-.28,10.67,7.59,10.67,7.59L65.23,13.93S57.58,0,42.49,0A29,29,0,0,0,22.94,7.68a28.1,28.1,0,0,0-9.19,18.76c-.63,9.19,2.27,15.65,9.41,21l5.56,4.07c.62.45,1.2.87,1.76,1.26,3.59,2.55,4.74,3.52,4.62,5.2-.27,4-4,4.58-6.18,4.58-8.18,0-13-10.23-13-10.23L0,65.48S7.67,82.4,26.3,82.4a33.1,33.1,0,0,0,10.8-1.77L55.86,45.75C54.64,41.66,52.1,38.49,48,35.56Z"/></g></g></svg>